<?xml version="1.0" standalone="no"?>
<!DOCTYPE svg PUBLIC "-//W3C//DTD SVG 20010904//EN"
 "http://www.w3.org/TR/2001/REC-SVG-20010904/DTD/svg10.dtd">
<svg version="1.0" xmlns="http://www.w3.org/2000/svg"
 width="725.000000pt" height="1069.000000pt" viewBox="0 0 725.000000 1069.000000"
 preserveAspectRatio="xMidYMid meet">

<g transform="translate(0.000000,1069.000000) scale(0.100000,-0.100000)"
fill="#000000" stroke="none">
<path d="M5076 9999 c-84 -20 -155 -83 -139 -124 5 -15 15 -17 71 -11 l64 7
-60 -50 c-176 -146 -402 -485 -472 -706 -31 -96 -38 -248 -16 -335 43 -172
163 -327 307 -395 315 -149 749 -106 1028 102 276 205 442 498 443 779 1 151
-37 263 -125 375 -127 160 -406 292 -736 348 -129 22 -294 26 -365 10z m375
-170 c192 -46 350 -116 473 -209 148 -112 205 -279 162 -473 -34 -150 -117
-287 -258 -423 -128 -124 -196 -167 -333 -213 -167 -56 -302 -60 -485 -14
-189 46 -312 172 -350 358 -38 185 74 480 291 767 87 115 157 180 230 217 73
36 81 36 270 -10z"/>
<path d="M1802 9915 c-166 -27 -247 -48 -376 -100 -16 -7 -17 -6 -6 14 14 28
8 36 -17 22 -32 -16 -158 -154 -213 -233 -67 -93 -141 -249 -171 -358 -19 -69
-23 -110 -23 -215 0 -120 2 -137 31 -218 73 -205 212 -361 408 -457 140 -68
210 -83 375 -83 247 1 443 68 627 215 169 134 269 305 337 573 78 310 51 464
-109 620 -105 103 -211 160 -383 207 -99 26 -355 34 -480 13z m373 -101 c239
-46 408 -152 483 -304 25 -51 27 -64 26 -170 -1 -124 -21 -208 -85 -370 -101
-251 -328 -449 -600 -521 -112 -30 -305 -32 -394 -5 -183 55 -354 196 -434
356 -59 120 -77 217 -63 335 21 164 67 305 144 440 69 119 123 163 248 198
208 59 488 76 675 41z"/>
<path d="M2205 7503 c-292 -37 -508 -95 -616 -164 -71 -46 -99 -99 -51 -99 11
0 -2 -16 -33 -42 -158 -132 -269 -294 -310 -453 -56 -219 53 -496 257 -650
176 -133 393 -184 582 -135 172 44 415 187 552 324 221 222 368 566 351 821
-13 201 -128 330 -343 385 -61 16 -107 20 -218 19 -78 -1 -154 -4 -171 -6z
m275 -149 c97 -18 210 -72 242 -115 41 -55 51 -101 45 -208 -15 -279 -191
-588 -435 -764 -96 -69 -247 -149 -321 -171 -232 -68 -534 73 -651 303 -86
172 -80 348 17 508 98 161 250 316 374 383 147 78 491 109 729 64z"/>
<path d="M5206 7480 c-83 -13 -207 -48 -235 -67 -47 -30 -293 -279 -338 -341
-56 -77 -96 -172 -117 -274 -40 -196 -3 -336 126 -474 101 -107 211 -173 397
-238 311 -108 540 -101 792 24 246 122 399 301 475 557 35 118 38 294 6 393
-59 180 -181 301 -367 365 -123 42 -234 56 -460 60 -121 2 -247 0 -279 -5z
m342 -110 c215 -24 421 -94 511 -175 142 -128 170 -362 73 -593 -81 -194 -232
-337 -445 -422 -210 -84 -384 -76 -652 31 -137 55 -228 111 -306 188 -108 107
-137 190 -118 329 24 176 81 284 229 432 162 161 261 211 412 208 48 -1 91 1
94 5 10 10 90 9 202 -3z"/>
<path d="M2245 5159 c-44 -5 -119 -13 -166 -18 -116 -13 -223 -56 -355 -143
-219 -145 -360 -328 -452 -588 -48 -138 -64 -237 -60 -375 3 -118 4 -123 42
-200 57 -114 207 -260 356 -343 164 -92 487 -119 694 -57 241 71 422 196 544
377 148 219 215 441 214 713 0 175 -16 265 -66 371 -59 125 -136 190 -281 240
-72 24 -96 28 -235 30 -85 1 -191 -2 -235 -7z m305 -123 c132 -28 239 -92 285
-170 86 -146 91 -459 11 -692 -74 -218 -219 -409 -379 -498 -133 -74 -314
-126 -440 -126 -77 0 -184 15 -261 37 -113 32 -323 198 -378 300 -79 145 -42
434 89 698 97 194 270 357 432 405 66 19 210 46 286 53 103 9 295 6 355 -7z"/>
<path d="M5210 5113 c-30 -7 -99 -22 -152 -33 -136 -30 -263 -98 -235 -126 4
-5 45 2 91 14 135 35 138 33 64 -47 -103 -114 -164 -230 -195 -374 -34 -159 4
-439 79 -579 82 -154 282 -304 498 -374 104 -33 291 -44 404 -24 262 46 474
206 596 450 76 151 120 331 120 489 0 143 -35 244 -118 343 -144 172 -341 255
-627 264 -361 10 -471 10 -525 -3z m475 -103 c256 -29 430 -101 545 -227 78
-86 110 -164 110 -274 0 -227 -124 -505 -292 -654 -65 -57 -209 -129 -303
-151 -212 -49 -475 36 -671 219 -127 118 -169 239 -169 487 0 149 2 158 32
237 17 45 51 112 76 150 50 78 161 201 192 214 29 11 373 11 480 -1z"/>
<path d="M2139 2579 c-50 -5 -116 -19 -155 -34 -126 -48 -332 -202 -445 -333
-138 -161 -249 -497 -249 -757 0 -281 127 -451 389 -524 176 -49 358 -47 518
5 271 88 497 266 641 504 92 153 124 283 124 505 0 173 -17 247 -77 330 -88
125 -343 278 -505 304 -73 12 -116 12 -241 0z m313 -172 c179 -89 304 -224
328 -352 23 -124 -3 -300 -64 -439 -100 -226 -342 -429 -627 -527 -90 -30
-230 -37 -339 -15 -232 47 -320 159 -320 407 0 197 62 442 149 588 80 135 343
351 427 351 22 0 68 9 104 20 49 15 88 19 157 17 87 -3 97 -5 185 -50z"/>
<path d="M5432 2576 c-82 -19 -161 -63 -190 -105 -30 -45 -25 -65 16 -69 17
-2 32 -6 32 -10 0 -4 -37 -26 -83 -49 -219 -112 -354 -321 -407 -631 -48 -278
-10 -492 117 -654 89 -113 250 -218 382 -248 160 -37 396 33 627 186 202 134
377 373 450 619 35 118 45 338 20 455 -45 215 -193 383 -395 449 -174 57 -448
84 -569 57z m164 -157 c104 -14 233 -53 324 -96 102 -49 207 -153 240 -238 28
-73 39 -252 21 -348 -51 -268 -203 -499 -414 -631 -125 -78 -237 -119 -339
-124 -84 -4 -91 -3 -161 30 -125 60 -252 197 -291 316 -75 226 -2 596 154 790
66 81 217 190 295 212 26 7 49 20 53 28 7 18 -24 42 -55 42 -25 0 -31 15 -10
23 21 9 103 7 183 -4z"/>
</g>
</svg>
