<?xml version="1.0" standalone="no"?>
<!DOCTYPE svg PUBLIC "-//W3C//DTD SVG 20010904//EN"
 "http://www.w3.org/TR/2001/REC-SVG-20010904/DTD/svg10.dtd">
<svg version="1.0" xmlns="http://www.w3.org/2000/svg"
 width="1536.000000pt" height="2048.000000pt" viewBox="0 0 1536.000000 2048.000000"
 preserveAspectRatio="xMidYMid meet">

<g transform="translate(0.000000,2048.000000) scale(0.100000,-0.100000)"
fill="#000000" stroke="none">
<path d="M9925 19523 c-79 -12 -232 -57 -320 -93 -185 -75 -321 -175 -520
-381 -206 -214 -290 -337 -451 -661 -183 -372 -268 -617 -325 -943 -27 -154
-36 -604 -20 -980 21 -468 70 -683 162 -710 19 -5 52 -20 72 -32 55 -33 71
-29 101 21 36 62 116 147 217 231 158 132 291 202 584 305 633 224 865 325
1080 468 231 153 343 291 496 607 154 317 218 609 206 939 -6 177 -21 258 -73
416 -63 190 -153 330 -303 472 -108 103 -220 183 -342 247 -150 78 -209 93
-384 96 -82 2 -163 1 -180 -2z m302 -148 c184 -43 449 -226 579 -398 160 -213
237 -522 205 -822 -29 -266 -86 -463 -195 -680 -160 -317 -270 -440 -528 -594
-123 -74 -258 -132 -603 -261 -433 -162 -554 -223 -755 -379 -114 -88 -277
-251 -330 -330 l-43 -64 -24 29 c-13 16 -30 40 -37 54 -31 58 -64 916 -46
1182 30 446 134 820 349 1246 110 217 189 346 286 462 92 110 320 330 394 379
121 82 269 146 406 176 82 18 265 18 342 0z"/>
<path d="M9316 18168 c-28 -44 -47 -144 -56 -303 -12 -197 -4 -311 22 -337 45
-45 72 -8 95 133 22 142 24 451 3 494 -19 38 -44 43 -64 13z"/>
<path d="M8897 18140 c-30 -23 -70 -121 -97 -234 -15 -59 -20 -117 -20 -213 0
-123 2 -134 23 -158 19 -23 32 -27 92 -31 61 -3 75 0 107 21 87 58 144 199
119 293 -17 60 -41 84 -92 91 l-44 6 3 95 c3 85 2 98 -18 123 -26 32 -39 34
-73 7z m89 -355 c-4 -19 -14 -49 -22 -67 -12 -26 -14 -27 -10 -8 3 14 8 44 12
68 4 23 11 42 16 42 6 0 8 -14 4 -35z"/>
<path d="M10162 18126 c-55 -25 -100 -66 -133 -120 -17 -28 -46 -68 -65 -88
-40 -45 -59 -103 -49 -154 16 -86 143 -164 266 -164 136 0 202 86 81 105 -66
10 -108 24 -142 47 -36 25 -50 48 -28 48 53 0 202 109 234 172 39 75 -4 156
-86 164 -27 3 -58 -2 -78 -10z"/>
<path d="M9525 17936 c-33 -44 -65 -134 -65 -187 0 -71 43 -119 106 -119 35 0
62 15 110 62 l42 40 4 -67 c3 -55 8 -71 27 -86 31 -25 57 -10 70 39 15 57 33
269 26 302 -4 17 -15 35 -26 41 -33 17 -59 1 -84 -57 -23 -53 -113 -154 -136
-154 -8 0 -9 25 -4 95 5 70 4 100 -5 110 -19 23 -37 18 -65 -19z"/>
<path d="M4905 19374 c-166 -18 -381 -79 -535 -150 -245 -115 -507 -336 -648
-548 -128 -193 -197 -459 -195 -761 1 -194 20 -323 77 -522 143 -497 389 -886
738 -1167 275 -223 781 -481 1350 -689 379 -139 529 -182 690 -194 l78 -6 0
-74 c0 -106 34 -162 87 -142 26 9 35 25 69 121 37 103 127 279 228 446 248
412 302 551 370 952 46 270 44 417 -9 665 -69 331 -205 610 -460 950 -244 325
-394 468 -818 783 -264 196 -398 261 -639 312 -91 20 -301 33 -383 24z m358
-173 c123 -32 236 -79 322 -134 127 -81 495 -390 635 -533 297 -305 543 -687
650 -1013 123 -371 130 -636 29 -1028 -39 -154 -83 -269 -204 -533 -57 -124
-124 -283 -150 -353 -29 -75 -52 -126 -59 -123 -6 3 -67 23 -135 46 -182 59
-688 251 -891 337 -215 92 -580 271 -717 353 -144 85 -457 328 -507 393 -133
171 -232 324 -300 460 -164 332 -237 604 -237 892 0 389 85 619 315 848 186
186 407 316 652 383 142 38 183 43 339 39 117 -2 159 -8 258 -34z"/>
<path d="M4385 17854 c-122 -63 -179 -248 -96 -311 24 -18 62 -16 98 6 l32 20
6 -54 c7 -54 -1 -142 -16 -182 -8 -22 -14 -23 -99 -23 -100 0 -148 -14 -174
-51 -58 -83 40 -190 189 -205 137 -14 238 53 264 178 13 59 1 179 -30 303 -13
49 -19 103 -18 140 3 49 -2 71 -24 117 -37 79 -71 94 -132 62z m71 -73 c-2 -9
-9 -37 -16 -64 -9 -33 -24 -58 -52 -82 -21 -20 -43 -33 -48 -30 -31 19 20 153
71 189 25 17 51 10 45 -13z"/>
<path d="M4852 17801 c-88 -97 -113 -166 -116 -321 -1 -105 15 -140 68 -140
43 0 64 25 72 83 9 63 30 62 101 -3 64 -59 105 -82 127 -74 33 13 9 71 -61
145 -43 46 -44 49 -34 86 16 56 14 169 -4 203 -31 59 -109 70 -153 21z m68
-81 c0 -17 -8 -61 -17 -98 l-17 -67 -9 75 c-9 79 1 120 28 120 10 0 15 -10 15
-30z"/>
<path d="M5305 17798 c-16 -6 -49 -24 -72 -40 -145 -99 -154 -274 -19 -367 50
-35 119 -55 155 -46 62 15 81 70 35 102 -55 39 -84 65 -84 77 0 6 19 26 43 44
107 83 137 165 76 216 -33 28 -80 33 -134 14z"/>
<path d="M5665 17746 c-92 -42 -165 -145 -165 -231 1 -81 88 -158 204 -178 57
-9 70 -9 101 6 28 13 36 22 33 39 -2 17 -17 27 -67 44 -66 23 -116 54 -116 72
0 5 23 26 50 44 101 70 143 160 95 208 -27 27 -73 25 -135 -4z m62 -96 c-17
-24 -67 -64 -67 -54 0 11 62 74 73 74 4 0 2 -9 -6 -20z"/>
<path d="M5987 17722 c-40 -44 -74 -198 -65 -292 8 -85 64 -136 124 -114 40
14 62 52 74 128 11 69 33 126 49 126 5 0 12 -15 16 -32 4 -18 18 -70 31 -116
28 -93 51 -115 99 -94 35 16 47 53 49 152 1 109 -25 168 -98 218 -55 36 -88
40 -131 14 -30 -18 -30 -18 -48 5 -23 28 -76 31 -100 5z"/>
<path d="M12745 17149 c-275 -26 -568 -115 -867 -265 -462 -231 -775 -469
-1195 -907 -351 -367 -623 -831 -623 -1063 0 -53 -16 -84 -45 -84 -27 0 -126
-53 -145 -78 -11 -13 -20 -35 -20 -48 0 -40 28 -45 131 -24 174 36 371 23 563
-37 261 -81 728 -303 1165 -553 331 -189 571 -283 849 -330 471 -81 971 90
1340 460 120 119 200 237 293 425 125 256 201 505 235 767 20 163 15 493 -10
633 -85 470 -255 715 -623 903 -318 162 -693 234 -1048 201z m539 -138 c291
-60 545 -178 707 -329 113 -104 210 -278 253 -452 37 -153 48 -251 53 -452 6
-227 -3 -329 -43 -518 -56 -260 -194 -589 -325 -773 -122 -171 -345 -356 -534
-443 -237 -107 -475 -153 -702 -133 -272 24 -543 123 -906 332 -685 395 -1188
603 -1507 623 -52 3 -100 7 -107 9 -21 7 23 141 94 285 37 74 115 206 174 295
527 793 1382 1412 2148 1555 158 29 150 28 381 25 169 -3 236 -8 314 -24z"/>
<path d="M12953 16033 c-33 -79 -55 -217 -60 -380 -6 -186 -1 -227 31 -248 49
-32 67 -1 86 150 29 225 29 466 -1 501 -20 24 -39 16 -56 -23z"/>
<path d="M13295 15911 c-92 -43 -165 -137 -165 -212 0 -118 133 -209 306 -209
144 0 195 97 67 129 -26 7 -68 21 -92 32 l-44 19 46 43 c75 69 88 137 38 188
-36 35 -94 39 -156 10z"/>
<path d="M12572 15890 c-37 -23 -58 -60 -48 -87 7 -16 10 -14 34 14 57 67 109
46 99 -39 -7 -52 -55 -171 -67 -163 -4 2 -10 32 -13 66 -4 44 -11 68 -26 82
l-20 21 -20 -23 c-27 -31 -44 -109 -45 -205 -1 -125 33 -196 87 -182 28 7 37
30 37 96 0 44 2 47 36 59 26 9 46 29 74 72 76 118 71 238 -13 289 -41 25 -74
25 -115 0z"/>
<path d="M12073 15805 c-32 -14 -63 -59 -63 -93 0 -11 -11 -39 -24 -63 -28
-51 -56 -175 -56 -249 0 -92 44 -155 90 -130 27 15 40 50 40 111 l0 49 35 0
c19 0 35 -4 35 -9 0 -5 27 -36 59 -70 47 -48 65 -61 89 -61 17 0 34 4 37 10
10 15 -21 64 -80 128 l-54 59 18 49 c30 78 36 152 16 201 -26 65 -84 93 -142
68z m54 -125 c3 -50 -34 -171 -54 -178 -20 -6 -17 160 3 199 23 45 48 35 51
-21z"/>
<path d="M11165 15720 c-11 -5 -39 -26 -63 -47 -43 -38 -44 -40 -59 -138 -21
-140 -15 -447 9 -471 38 -38 61 7 73 148 6 73 8 77 36 89 96 39 184 248 150
352 -22 64 -86 94 -146 67z m65 -58 c0 -36 -32 -139 -62 -202 l-32 -65 -8 115
c-11 156 -10 161 32 175 40 14 70 4 70 -23z"/>
<path d="M11648 15603 c-8 -10 -27 -45 -42 -78 -27 -60 -61 -105 -79 -105 -5
0 -6 32 -2 80 6 68 5 81 -9 86 -43 17 -90 -74 -91 -174 0 -66 3 -76 24 -93 36
-29 91 -25 136 11 l39 31 17 -46 c10 -25 23 -53 29 -61 18 -20 77 -18 88 4 32
60 25 270 -12 324 -26 39 -73 49 -98 21z"/>
<path d="M2505 16110 c-272 -29 -507 -118 -705 -266 -170 -127 -275 -254 -413
-499 -197 -352 -303 -671 -374 -1125 -26 -169 -26 -682 1 -825 40 -217 94
-355 204 -520 134 -201 319 -355 598 -496 244 -124 454 -178 721 -186 261 -8
378 13 673 124 345 130 483 202 747 389 182 129 318 239 493 400 211 193 446
375 620 481 93 56 448 258 491 278 36 17 37 17 67 -5 40 -30 67 -21 57 18 -10
35 -9 41 6 79 11 28 11 34 -4 51 -10 11 -35 22 -55 26 -39 6 -71 34 -127 111
-16 22 -53 65 -80 95 -28 31 -110 134 -182 230 -72 96 -174 222 -228 280 -93
100 -134 146 -319 358 -221 254 -607 538 -996 732 -355 178 -649 258 -1005
274 -60 2 -146 1 -190 -4z m370 -187 c221 -30 406 -90 650 -208 258 -126 521
-297 734 -479 162 -138 216 -191 354 -351 66 -77 177 -198 247 -270 69 -71
164 -177 209 -235 46 -58 103 -125 125 -148 59 -63 197 -169 250 -193 26 -11
44 -24 42 -28 -3 -4 -47 -23 -98 -41 -325 -113 -701 -354 -1128 -721 -261
-224 -568 -448 -745 -544 -152 -82 -491 -218 -636 -254 -234 -58 -554 -36
-814 56 -196 70 -416 203 -548 332 -249 242 -341 511 -340 996 0 602 147 1112
458 1591 130 201 336 361 565 442 217 76 411 92 675 55z"/>
<path d="M3440 14932 c-20 -7 -28 -20 -40 -62 -13 -48 -40 -335 -40 -427 0
-65 3 -77 25 -98 30 -31 82 -33 118 -5 14 11 37 41 52 67 16 27 30 50 32 52 6
7 62 -50 110 -111 27 -35 52 -58 64 -58 26 0 24 24 -6 85 -27 57 -58 95 -97
120 -16 9 -28 21 -28 25 0 15 78 102 114 126 43 29 48 65 13 89 -34 22 -77 6
-174 -65 l-83 -59 0 140 c0 163 -11 197 -60 181z"/>
<path d="M2471 14730 c-26 -50 -26 -57 -1 -70 40 -22 82 64 48 98 -19 19 -24
15 -47 -28z"/>
<path d="M1860 14585 c-53 -27 -125 -102 -145 -148 -16 -39 -44 -243 -52 -382
-6 -97 -5 -102 19 -129 20 -24 30 -28 52 -22 32 8 56 56 56 113 0 62 9 81 41
88 57 13 167 150 209 261 65 174 -35 295 -180 219z m67 -125 c-6 -52 -69 -197
-103 -238 l-20 -24 1 115 c0 126 5 138 70 178 50 31 59 26 52 -31z"/>
<path d="M2964 14561 c-18 -11 -44 -36 -60 -56 l-28 -38 -9 34 c-11 42 -24 59
-47 59 -31 0 -41 -26 -66 -167 -37 -211 -32 -247 32 -267 46 -14 73 13 124
122 27 57 53 101 59 98 5 -3 12 -25 15 -49 4 -23 16 -57 27 -75 16 -28 24 -33
52 -30 48 5 61 40 61 173 0 120 -10 155 -60 194 -33 26 -60 26 -100 2z"/>
<path d="M2414 14452 c-52 -34 -96 -292 -64 -377 23 -60 72 -41 81 31 3 27 16
85 28 128 27 101 28 187 3 209 -20 19 -31 21 -48 9z"/>
<path d="M7857 15614 c-188 -29 -461 -112 -630 -192 -96 -46 -253 -149 -387
-253 -52 -41 -158 -121 -235 -179 -220 -163 -409 -368 -540 -584 -155 -255
-248 -664 -215 -946 27 -237 135 -546 256 -735 115 -180 383 -456 550 -568
184 -122 440 -224 621 -248 204 -26 439 -8 633 48 237 68 609 309 845 547 230
233 515 643 665 959 102 215 181 477 215 708 17 123 20 358 4 445 -37 210
-149 396 -365 605 -150 144 -292 229 -501 299 -280 93 -668 133 -916 94z m552
-214 c256 -45 479 -134 623 -248 128 -102 271 -277 325 -400 64 -145 80 -328
47 -551 -63 -434 -223 -780 -582 -1261 -188 -251 -335 -389 -627 -585 -186
-125 -287 -168 -480 -207 -129 -26 -336 -27 -450 -3 -194 40 -403 134 -555
249 -102 76 -310 289 -398 405 -101 133 -211 381 -269 601 -61 233 -33 583 67
836 85 213 279 463 492 634 68 56 107 80 126 80 16 0 63 24 117 61 50 33 153
92 230 130 117 59 150 71 200 74 47 3 59 7 57 19 -1 8 7 20 18 26 73 39 359
126 514 155 106 21 387 13 545 -15z"/>
<path d="M7795 14379 c-9 -16 -25 -65 -36 -107 -35 -135 -23 -464 19 -521 24
-33 35 -35 61 -14 29 24 40 95 48 309 6 167 0 243 -28 332 -14 42 -43 43 -64
1z"/>
<path d="M8934 14383 c-7 -5 -40 -53 -74 -108 -34 -55 -64 -102 -66 -105 -3
-2 -4 29 -2 69 3 79 -9 101 -58 101 -31 0 -45 -22 -74 -109 -14 -42 -30 -76
-35 -76 -6 0 -17 30 -26 68 -9 37 -22 74 -29 82 -18 22 -64 18 -86 -6 -29 -32
-27 -188 3 -246 45 -84 121 -109 180 -59 20 17 34 22 44 15 8 -5 30 -9 50 -9
28 0 44 8 73 37 107 107 195 342 131 351 -11 1 -25 -1 -31 -5z"/>
<path d="M7533 14368 c-34 -43 -73 -237 -73 -363 0 -229 44 -358 108 -317 16
11 22 611 6 656 -12 34 -26 42 -41 24z"/>
<path d="M8117 14176 c-21 -14 -44 -26 -51 -26 -17 0 -63 -50 -75 -83 -16 -41
-13 -123 4 -157 50 -97 163 -93 245 10 105 133 89 266 -36 277 -41 4 -55 1
-87 -21z m77 -82 c27 -10 19 -60 -15 -99 -37 -42 -56 -44 -69 -9 -19 48 -12
82 18 97 31 17 44 19 66 11z"/>
<path d="M7055 14063 c-44 -23 -93 -72 -123 -123 -22 -37 -27 -57 -27 -112 0
-58 4 -72 30 -109 45 -63 120 -102 198 -101 34 0 74 5 89 10 56 22 90 91 52
106 -9 3 -35 6 -59 6 -49 0 -91 13 -117 37 -17 15 -14 20 42 79 69 74 86 119
65 170 -7 18 -22 37 -33 43 -29 16 -82 13 -117 -6z m55 -112 c-22 -32 -30 -38
-30 -22 0 12 41 63 47 57 3 -3 -5 -19 -17 -35z"/>
<path d="M6637 14022 c-9 -10 -23 -55 -31 -101 -15 -85 -50 -158 -87 -185 -47
-32 -70 12 -77 149 -5 111 -14 135 -42 110 -42 -38 -54 -217 -21 -292 35 -76
93 -96 164 -58 42 22 48 23 43 8 -3 -10 -8 -40 -12 -68 -16 -112 -46 -160
-126 -201 -50 -25 -66 -54 -53 -94 7 -24 60 -50 99 -50 44 0 126 33 165 67 64
55 84 108 89 242 4 100 -8 311 -24 424 -9 63 -53 87 -87 49z"/>
<path d="M9752 13090 c-160 -14 -258 -31 -291 -51 l-31 -19 0 -107 c1 -321 36
-449 255 -943 153 -346 179 -397 352 -689 384 -648 419 -697 740 -1052 256
-284 525 -484 764 -567 329 -115 731 -129 1018 -35 410 133 817 508 1046 964
154 305 255 705 255 1007 0 265 -69 488 -225 722 -111 167 -340 359 -562 469
-291 145 -717 237 -1254 271 -346 22 -1898 44 -2067 30z m73 -140 c171 -5 432
-19 580 -30 181 -14 439 -24 785 -30 898 -16 1234 -53 1610 -177 276 -91 526
-257 665 -441 125 -166 206 -369 224 -560 31 -337 -111 -821 -341 -1167 -281
-422 -583 -652 -958 -731 -119 -26 -383 -26 -498 -1 -260 57 -429 147 -684
363 -218 185 -771 865 -921 1132 -36 64 -119 198 -184 298 -116 177 -309 533
-397 730 -25 56 -75 185 -111 285 -37 101 -75 198 -86 215 -22 36 -27 124 -6
124 6 0 152 -5 322 -10z"/>
<path d="M12206 12178 c-9 -14 -20 -82 -29 -178 -11 -123 -19 -165 -37 -200
l-23 -45 -9 32 c-10 38 -51 73 -85 73 -97 0 -214 -172 -184 -271 15 -50 62
-89 107 -89 71 0 135 58 188 170 l31 65 5 -126 c5 -134 14 -159 55 -159 56 0
73 64 81 305 4 138 2 194 -14 299 -19 124 -28 145 -59 146 -7 0 -19 -10 -27
-22z m-200 -479 c3 -6 19 -9 35 -7 38 6 37 -3 -6 -41 -58 -51 -96 -39 -75 24
11 34 32 45 46 24z"/>
<path d="M10884 12036 c-35 -15 -64 -51 -64 -78 0 -9 -9 -20 -21 -23 -48 -16
-75 -181 -65 -395 7 -143 19 -180 57 -180 33 0 57 87 71 255 l3 30 28 -47 c33
-54 81 -99 137 -128 45 -23 71 -25 88 -8 23 23 12 50 -48 112 l-60 63 21 19
c40 36 62 95 67 179 5 97 -10 140 -62 180 -43 33 -107 42 -152 21z m82 -60
c45 -34 7 -207 -58 -261 -16 -14 -33 -25 -38 -25 -4 0 -7 46 -7 103 1 63 -3
110 -11 124 -10 19 -8 24 19 47 34 29 66 33 95 12z"/>
<path d="M11474 11826 c-84 -39 -134 -117 -134 -206 1 -43 53 -118 108 -155
41 -27 120 -46 155 -37 64 15 62 52 -5 95 -61 39 -85 64 -72 75 5 5 31 25 58
47 86 68 108 133 61 180 -32 33 -101 34 -171 1z"/>
<path d="M6024 12124 c-102 -48 -185 -68 -358 -85 -134 -14 -390 -3 -796 32
-676 60 -1118 23 -1650 -137 -323 -97 -512 -204 -766 -431 -207 -186 -392
-517 -485 -870 -41 -154 -50 -348 -24 -504 32 -191 162 -508 290 -706 95 -147
365 -401 570 -537 190 -126 532 -306 720 -379 260 -101 604 -167 800 -152 293
21 595 125 840 290 282 190 453 361 560 560 141 262 225 543 340 1125 104 531
117 630 135 1090 5 140 12 282 15 315 17 222 29 316 43 358 16 46 16 50 -1 62
-10 7 -44 12 -80 12 -52 0 -77 -7 -153 -43z m27 -142 c-23 -120 -31 -210 -46
-503 -25 -495 -47 -652 -165 -1164 -96 -418 -222 -854 -267 -925 -145 -228
-285 -369 -518 -523 -176 -116 -334 -183 -551 -233 -321 -74 -712 0 -1159 221
-330 162 -475 249 -645 383 -239 189 -308 269 -428 494 -89 166 -135 272 -164
381 -30 111 -32 361 -4 482 43 184 165 468 267 625 53 81 207 236 315 318 176
132 318 203 545 271 295 88 491 126 789 152 148 13 633 6 780 -11 146 -17 694
-24 794 -11 92 13 308 66 406 100 34 12 56 16 59 9 2 -5 -2 -35 -8 -66z"/>
<path d="M5236 10854 c-73 -38 -133 -105 -152 -170 -15 -51 -14 -59 3 -116 16
-55 24 -66 80 -109 77 -59 155 -89 231 -89 68 0 95 16 90 51 -2 18 -19 32 -70
59 -37 19 -78 46 -92 59 l-26 24 58 61 c73 76 100 138 82 190 -22 69 -114 86
-204 40z"/>
<path d="M4273 10750 c-13 -5 -35 -27 -50 -49 -31 -44 -43 -51 -43 -23 0 26
-32 52 -63 52 -38 0 -54 -37 -78 -190 -24 -147 -20 -190 18 -220 38 -30 76
-26 107 11 14 17 26 36 26 43 0 7 7 37 16 66 17 58 26 55 38 -12 8 -46 50 -98
80 -98 60 0 89 70 90 220 0 106 -27 174 -80 196 -18 8 -35 14 -36 13 -2 0 -13
-4 -25 -9z"/>
<path d="M4675 10708 c-60 -63 -97 -135 -103 -204 -10 -114 72 -170 162 -109
l36 24 0 -95 c0 -127 -23 -227 -58 -255 -24 -19 -37 -21 -117 -16 -49 2 -97 7
-106 11 -9 4 -25 -1 -40 -13 -20 -16 -22 -23 -14 -47 20 -56 98 -91 227 -101
66 -5 82 -3 122 17 103 50 131 182 101 481 -9 94 -14 190 -10 214 5 39 2 49
-30 94 -34 47 -40 51 -78 51 -36 0 -47 -6 -92 -52z m78 -116 c7 -9 3 -21 -18
-42 -16 -17 -33 -30 -38 -30 -11 0 1 57 21 95 14 26 16 28 20 10 2 -11 9 -26
15 -33z"/>
<path d="M3080 10733 c-8 -3 -28 -17 -43 -29 -16 -13 -35 -24 -43 -24 -34 0
-74 -175 -74 -326 0 -95 20 -134 70 -134 44 0 70 40 70 106 0 30 5 54 10 54 6
0 10 -4 10 -10 0 -16 61 -80 91 -96 34 -17 81 -18 97 -2 21 21 13 48 -29 98
l-41 49 21 44 c39 80 24 194 -31 245 -26 23 -81 36 -108 25z m-9 -174 c-6 -16
-10 -18 -10 -7 -1 22 12 55 16 42 2 -6 -1 -22 -6 -35z"/>
<path d="M3630 10711 c-87 -27 -186 -115 -210 -185 -48 -145 89 -254 215 -172
21 14 24 12 53 -29 37 -53 70 -76 111 -77 64 -2 77 38 34 104 -26 39 -28 50
-33 173 -5 144 -11 158 -67 182 -35 14 -64 15 -103 4z m-13 -186 c-4 -8 -11
-15 -17 -15 -7 0 -7 6 0 21 13 23 26 19 17 -6z"/>
<path d="M2513 10565 c-17 -7 -39 -24 -47 -38 -24 -35 -48 -174 -41 -226 22
-149 213 -129 300 31 51 94 20 195 -72 234 -41 18 -99 17 -140 -1z m100 -123
c9 -8 17 -24 17 -35 0 -29 -35 -81 -65 -97 -23 -12 -28 -12 -36 0 -11 17 -1
129 12 146 12 14 47 7 72 -14z"/>
<path d="M7128 11838 c-16 -13 -111 -220 -179 -391 -106 -265 -153 -428 -386
-1317 -243 -934 -334 -1334 -422 -1871 -111 -668 -151 -1166 -151 -1858 0
-537 20 -876 80 -1364 79 -636 168 -1177 254 -1537 14 -58 41 -188 61 -289 43
-218 89 -384 140 -501 39 -89 77 -192 73 -195 -2 -2 -18 -10 -36 -19 -25 -13
-41 -33 -59 -74 -14 -31 -28 -59 -30 -62 -8 -10 -25 29 -68 164 -24 76 -52
147 -61 157 -24 27 -85 25 -110 -2 -17 -18 -20 -44 -26 -198 -3 -97 -4 -223
-1 -280 5 -86 4 -103 -8 -99 -20 7 -149 307 -321 748 -33 85 -67 163 -76 173
-8 9 -29 17 -48 17 -49 0 -64 -28 -64 -123 0 -165 -94 -644 -124 -634 -5 2
-23 34 -38 72 -36 87 -53 100 -94 71 -16 -12 -20 -30 -24 -115 -3 -56 -9 -102
-14 -102 -6 0 -44 75 -86 168 -75 164 -122 250 -144 265 -20 14 -55 8 -65 -10
-13 -25 -17 -62 -62 -542 -29 -316 -43 -525 -50 -765 -6 -181 -11 -348 -12
-370 -1 -22 1 -55 5 -72 7 -31 5 -34 -55 -74 -73 -49 -153 -123 -173 -161 -12
-23 -12 -29 5 -49 23 -28 39 -23 133 47 154 113 714 347 1323 552 835 281
1618 404 2460 389 325 -6 498 -20 751 -62 352 -57 558 -110 1534 -396 329 -96
430 -103 369 -25 -37 46 -157 94 -724 288 -192 65 -351 120 -352 122 -2 1 51
118 116 258 182 390 316 737 328 848 14 138 -70 239 -198 240 -73 0 -225 -43
-384 -109 -80 -34 -150 -61 -155 -61 -6 0 -10 36 -10 81 0 76 -2 82 -29 110
-23 22 -39 29 -69 29 -53 0 -104 -35 -416 -285 -293 -236 -396 -315 -413 -315
-39 0 28 489 93 676 29 84 30 115 6 137 -35 32 -67 20 -204 -72 -140 -95 -196
-139 -458 -366 -160 -138 -302 -245 -326 -245 -21 0 -48 112 -58 240 -25 297
-35 348 -76 370 -32 17 -72 -3 -98 -48 -11 -20 -52 -113 -90 -207 -88 -212
-187 -428 -199 -432 -5 -2 -17 34 -27 79 -9 46 -39 148 -66 228 -27 80 -67
218 -89 307 -54 218 -79 263 -145 263 -66 0 -75 -16 -226 -440 -74 -209 -136
-348 -150 -334 -5 5 -41 99 -79 209 -38 110 -83 238 -101 285 -20 55 -36 124
-45 195 -8 61 -25 184 -39 275 -57 373 -134 1081 -161 1470 -51 753 -59 2151
-15 2855 48 763 116 1250 316 2270 209 1064 261 1281 390 1623 61 160 65 187
32 196 -36 9 -63 7 -80 -6z m1817 -8950 c-15 -43 -98 -353 -110 -410 -33 -153
-14 -289 46 -345 75 -69 147 -55 321 61 96 64 391 299 504 401 42 39 79 66 81
60 14 -40 54 -91 83 -107 59 -32 139 -21 346 50 99 34 200 65 227 68 42 6 47
5 47 -13 0 -33 -19 -80 -113 -278 -113 -238 -239 -616 -254 -758 -5 -53 -8
-58 -27 -54 -12 3 -100 25 -196 50 -508 133 -1015 178 -1630 147 -905 -47
-1662 -229 -2714 -652 -110 -44 -259 -108 -329 -141 -79 -37 -131 -57 -137
-51 -45 45 -32 605 30 1389 13 161 19 200 29 189 5 -5 22 -49 39 -99 94 -279
191 -547 208 -576 27 -45 58 -60 96 -47 47 17 53 42 40 181 -17 171 -20 158
33 150 93 -12 121 37 170 294 31 162 39 193 49 182 1 -2 22 -65 45 -139 53
-168 159 -445 215 -565 51 -109 126 -225 167 -260 39 -32 108 -34 149 -5 46
33 53 72 41 222 -13 152 -14 258 -3 258 4 -1 18 -7 32 -15 84 -48 160 16 160
134 0 27 4 52 9 55 16 10 89 -127 115 -219 89 -301 160 -405 280 -405 37 0 89
32 120 73 41 55 19 159 -95 451 l-20 48 41 70 c58 102 92 184 145 353 25 83
51 165 56 183 14 42 25 34 34 -25 3 -27 20 -116 36 -199 16 -83 43 -241 59
-350 35 -234 49 -279 96 -325 30 -30 42 -34 85 -34 45 0 54 4 84 36 24 26 36
53 45 95 19 92 95 313 202 586 6 15 14 26 18 23 4 -2 10 -48 13 -102 7 -123
33 -198 87 -247 22 -20 55 -38 75 -42 91 -17 175 40 449 302 301 288 439 403
421 352z"/>
<path d="M7925 11820 c-16 -18 -19 -39 -21 -143 -8 -470 -22 -595 -94 -809
-65 -195 -141 -337 -300 -558 -164 -229 -247 -366 -404 -665 -233 -442 -286
-628 -273 -944 9 -206 43 -365 121 -560 108 -267 237 -464 451 -689 114 -120
225 -203 350 -263 198 -95 328 -115 685 -106 392 10 621 47 864 142 202 78
337 157 536 315 238 189 351 308 480 502 219 330 299 589 270 872 -23 224 -86
402 -245 688 -184 332 -217 375 -508 646 -314 291 -341 312 -642 479 -308 171
-479 281 -711 455 -215 160 -354 323 -445 517 -61 131 -64 136 -80 139 -8 1
-24 -7 -34 -18z m186 -550 c103 -154 241 -284 454 -426 229 -154 371 -240 564
-343 171 -91 274 -158 354 -228 118 -104 386 -361 440 -422 144 -162 329 -482
397 -686 81 -242 81 -464 -1 -675 -57 -149 -204 -378 -328 -512 -126 -136
-468 -391 -644 -479 -284 -143 -501 -184 -982 -184 -288 0 -291 1 -378 28
-209 65 -331 154 -535 392 -114 133 -201 263 -275 410 -102 205 -135 342 -144
595 -9 294 24 420 213 799 148 297 231 437 403 681 263 371 381 687 381 1021
0 79 4 139 8 134 5 -6 38 -53 73 -105z"/>
<path d="M8064 10032 c-18 -11 -34 -48 -34 -76 0 -22 5 -26 28 -26 49 0 87 64
57 94 -18 17 -34 20 -51 8z"/>
<path d="M8812 10018 c-7 -7 -12 -21 -12 -32 0 -11 -18 -110 -40 -220 -53
-269 -57 -308 -35 -329 35 -35 95 -6 95 46 0 51 102 185 133 174 14 -4 45
-117 46 -163 1 -42 19 -57 51 -41 34 17 51 70 43 137 -11 107 -54 170 -115
170 -16 0 -52 -12 -80 -26 l-51 -26 6 34 c15 80 20 245 8 266 -13 24 -31 28
-49 10z"/>
<path d="M9393 9993 c-10 -15 -30 -63 -45 -107 l-27 -80 -53 -13 c-88 -23 -92
-43 -8 -51 l50 -5 0 -72 c0 -125 40 -198 126 -231 33 -12 67 -15 142 -12 111
4 156 22 150 61 -3 20 -11 23 -78 29 -165 16 -184 32 -185 156 l0 87 35 5 c45
6 46 31 3 44 -37 10 -38 13 -22 104 14 81 3 112 -41 112 -21 0 -35 -8 -47 -27z"/>
<path d="M7707 9978 c-19 -15 -82 -207 -102 -310 -21 -114 -29 -251 -16 -276
15 -27 52 -28 76 -3 9 11 33 71 52 133 75 246 94 402 53 446 -24 25 -39 27
-63 10z"/>
<path d="M8339 9742 c-82 -53 -179 -187 -179 -250 0 -37 51 -82 95 -82 43 0
69 12 114 54 l33 31 -5 -87 c-8 -143 -39 -175 -221 -224 -120 -32 -148 -47
-144 -77 3 -19 10 -22 57 -25 30 -2 91 4 135 13 222 45 274 120 263 379 -5
119 -3 133 14 155 28 35 24 77 -10 112 -40 39 -91 39 -152 1z m10 -152 c-35
-66 -89 -109 -89 -71 0 21 81 136 102 143 23 9 20 -10 -13 -72z"/>
<path d="M7945 9697 c-33 -68 -67 -232 -63 -306 3 -52 5 -56 28 -56 20 0 28 9
43 50 34 91 78 279 75 320 -3 35 -6 40 -29 43 -24 3 -30 -4 -54 -51z"/>
<path d="M8360 8823 c-17 -26 -39 -72 -51 -102 -62 -167 -110 -522 -79 -582
14 -24 52 -25 74 0 22 24 33 62 102 328 44 174 54 228 54 296 0 89 -8 107 -47
107 -17 0 -32 -13 -53 -47z"/>
<path d="M9335 8818 c-52 -19 -113 -67 -146 -115 -37 -53 -69 -148 -69 -202 0
-51 38 -122 78 -144 63 -37 189 -15 180 31 -2 9 -22 29 -46 45 -32 22 -42 35
-42 55 0 36 4 40 82 95 38 27 79 65 93 85 68 100 -12 192 -130 150z"/>
<path d="M7663 8768 c-35 -45 -76 -237 -139 -661 -4 -28 -1 -43 12 -58 23 -25
39 -24 61 5 14 17 34 26 70 31 71 9 164 55 223 111 117 110 148 307 54 352
-35 16 -35 16 -126 -31 -50 -26 -92 -46 -94 -44 -2 1 1 32 6 67 16 112 13 204
-8 223 -22 20 -46 22 -59 5z m207 -337 c0 -39 -71 -160 -118 -202 -47 -41
-100 -74 -108 -66 -5 4 49 188 61 207 7 11 140 79 158 80 4 0 7 -8 7 -19z"/>
<path d="M8898 8710 c-9 -6 -42 -46 -72 -90 -71 -101 -187 -197 -173 -142 23
81 38 164 35 188 -2 24 -8 29 -35 32 -28 3 -34 -2 -58 -43 -37 -62 -65 -156
-65 -216 0 -40 5 -55 29 -81 25 -28 36 -33 74 -32 49 1 115 34 156 78 14 14
28 26 33 26 4 0 8 -37 8 -82 0 -47 6 -94 13 -108 17 -34 52 -38 71 -8 15 24
86 362 86 411 0 32 -40 77 -67 77 -10 0 -26 -5 -35 -10z"/>
<path d="M1258 7219 c-13 -7 -18 -22 -18 -50 0 -35 8 -47 76 -118 92 -97 92
-98 169 -476 101 -492 181 -748 325 -1035 149 -298 254 -445 543 -768 240
-267 335 -353 571 -510 252 -168 403 -227 666 -257 69 -8 163 -15 210 -15 83
0 396 24 475 36 114 17 443 78 535 99 58 13 197 40 309 60 112 20 249 47 304
60 55 14 134 27 176 31 109 10 131 23 131 81 0 22 6 36 20 43 41 22 25 53 -52
102 -97 61 -113 68 -258 123 -69 26 -159 65 -200 85 -113 57 -305 195 -396
285 -100 98 -139 171 -231 430 -121 341 -214 494 -442 728 -80 82 -175 171
-211 198 -72 55 -281 164 -435 229 -191 80 -235 87 -775 140 -312 31 -466 66
-740 167 -95 34 -402 183 -597 288 -105 56 -125 62 -155 44z m451 -476 c153
-97 518 -221 741 -252 115 -16 254 -29 490 -46 326 -24 416 -48 684 -182 143
-72 220 -127 346 -253 207 -208 303 -358 400 -630 58 -161 151 -363 201 -437
49 -72 126 -150 199 -202 55 -39 61 -46 42 -49 -34 -5 -144 31 -327 105 -278
113 -407 190 -584 351 l-79 72 -4 127 c-4 113 -11 157 -62 368 -64 271 -80
307 -114 273 -24 -24 -4 -276 43 -537 8 -47 12 -87 10 -90 -3 -2 -49 38 -103
90 -90 88 -202 182 -362 304 -36 27 -105 88 -155 135 -120 115 -309 228 -438
262 -55 14 -80 5 -85 -33 -2 -22 16 -34 176 -122 l180 -98 5 -40 c7 -55 55
-124 183 -264 60 -65 156 -173 213 -239 175 -204 244 -277 355 -376 189 -167
332 -260 512 -333 230 -94 425 -148 598 -167 101 -11 120 -16 95 -24 -161 -56
-558 -128 -853 -156 -196 -18 -245 -20 -340 -10 -275 27 -363 61 -631 241
-176 119 -256 189 -490 435 -295 309 -392 429 -521 646 -143 242 -233 448
-318 728 -26 85 -70 225 -97 312 -27 86 -49 162 -49 168 0 8 9 6 28 -6 15 -10
65 -42 111 -71z"/>
<path d="M2023 5785 c-25 -68 84 -226 273 -396 129 -115 230 -167 400 -205 65
-15 126 -19 349 -19 149 0 294 -4 324 -9 50 -8 53 -8 43 10 -24 44 -100 105
-153 123 -30 11 -168 42 -305 70 -240 48 -378 88 -474 136 -60 30 -182 121
-299 223 -71 62 -101 82 -123 82 -17 0 -31 -6 -35 -15z"/>
<path d="M10690 6874 c-19 -15 -80 -71 -135 -124 -171 -165 -283 -244 -445
-316 -112 -49 -192 -72 -395 -114 -294 -60 -615 -152 -789 -227 -116 -49 -383
-195 -506 -277 -78 -51 -143 -107 -250 -215 -217 -219 -337 -402 -394 -601
-13 -47 -43 -207 -65 -355 -64 -420 -89 -500 -199 -654 -166 -233 -353 -386
-494 -406 -56 -8 -74 -25 -59 -53 12 -22 79 -52 116 -52 22 0 25 -4 25 -38 0
-40 14 -62 39 -62 9 0 63 29 120 65 102 63 293 146 416 180 33 9 114 19 180
22 106 5 143 1 315 -28 178 -30 213 -33 400 -33 185 0 218 2 332 27 206 44
356 106 579 242 207 125 383 275 537 458 216 255 352 555 475 1042 77 305 125
581 196 1120 17 129 18 131 74 225 32 52 60 105 64 119 18 72 -69 106 -137 55z
m-120 -477 c0 -2 -9 -29 -19 -60 -11 -30 -56 -213 -101 -407 -151 -651 -301
-1059 -474 -1292 -77 -103 -251 -285 -357 -374 -176 -147 -484 -318 -664 -369
-261 -75 -437 -82 -739 -30 -113 19 -234 35 -270 35 -36 0 -67 4 -70 9 -12 20
150 142 404 304 201 128 281 165 534 248 222 73 278 100 391 184 94 71 366
350 444 455 72 96 274 490 269 523 -7 50 -71 47 -121 -6 -17 -18 -73 -97 -125
-177 -106 -162 -133 -196 -313 -395 -266 -294 -327 -340 -548 -416 -112 -38
-116 -38 -92 9 33 66 71 181 121 372 27 103 64 226 81 274 34 95 31 121 -13
87 -56 -44 -166 -318 -264 -655 l-49 -168 -105 -53 c-255 -128 -587 -376 -752
-562 -26 -29 -54 -53 -63 -53 -21 0 -19 11 11 51 38 51 99 175 122 251 12 37
44 201 71 365 28 164 60 332 71 373 46 168 158 338 336 515 131 130 236 203
430 302 290 147 389 177 941 288 177 36 366 79 420 96 165 53 332 144 431 235
41 38 62 52 62 41z"/>
<path d="M9862 5173 c-248 -168 -347 -244 -368 -285 -13 -25 -13 -29 1 -34 9
-4 28 -1 43 6 65 29 421 298 515 388 45 44 59 72 37 72 -6 0 -108 -66 -228
-147z"/>
</g>
</svg>
